HIERARCHY
ROOT CG
{
	OFFSET 0.000000 0.000000 27.772259
	CHANNELS 6 Xposition Yposition Zposition Xrotation Yrotation Zrotation
	JOINT Pelvis
	{
		OFFSET 0.000000 0.000000 0.000000
		CHANNELS 3 Xrotation Yrotation Zrotation
		JOINT Spine
		{
			OFFSET -0.000017 -10.490843 -0.495483
			CHANNELS 3 Xrotation Yrotation Zrotation
			JOINT Spine1
			{
				OFFSET -0.000010 -22.678980 0.018061
				CHANNELS 3 Xrotation Yrotation Zrotation
				JOINT Spine2
				{
					OFFSET -0.000010 -22.678967 0.018061
					CHANNELS 3 Xrotation Yrotation Zrotation
					JOINT Spine3
					{
						OFFSET -0.000010 -22.678982 0.018059
						CHANNELS 3 Xrotation Yrotation Zrotation
						JOINT Neck
						{
							OFFSET -0.000012 -22.678986 -1.289251
							CHANNELS 3 Xrotation Yrotation Zrotation
							JOINT Neck1
							{
								OFFSET -0.000007 -16.255905 0.012947
								CHANNELS 3 Xrotation Yrotation Zrotation
								JOINT Head
								{
									OFFSET -0.000005 -10.784607 -0.287502
									CHANNELS 3 Xrotation Yrotation Zrotation
									JOINT Jaw01
									{
										OFFSET 0.000031 7.782959 5.073944
										CHANNELS 3 Xrotation Yrotation Zrotation
										JOINT Jaw02
										{
											OFFSET 0.000004 -34.927139 -18.883980
											CHANNELS 3 Xrotation Yrotation Zrotation
											End Site
											{
												OFFSET -0.000170 8.372803 -38.812450
											}
										}
									}
									JOINT Nose
									{
										OFFSET -0.000002 -25.700912 7.222265
										CHANNELS 3 Xrotation Yrotation Zrotation
										End Site
										{
											OFFSET -0.000090 0.641281 -21.715439
										}
									}
									JOINT L_EyeSocket
									{
										OFFSET 7.352326 -19.832718 14.164183
										CHANNELS 3 Xrotation Yrotation Zrotation
										JOINT L_Eye
										{
											OFFSET -0.000868 -0.001053 0.016003
											CHANNELS 3 Xrotation Yrotation Zrotation
											End Site
											{
												OFFSET -0.001505 -0.001846 0.027969
											}
										}
										JOINT L_Eyelid_Top
										{
											OFFSET -0.001004 -0.002625 0.032516
											CHANNELS 3 Xrotation Yrotation Zrotation
											End Site
											{
												OFFSET -0.013218 0.005753 0.024086
											}
										}
										JOINT L_Eyelid_Bottom
										{
											OFFSET -0.001194 -0.002777 0.035381
											CHANNELS 3 Xrotation Yrotation Zrotation
											End Site
											{
												OFFSET -0.010032 0.008636 -0.024754
											}
										}
									}
									JOINT R_EyeSocket
									{
										OFFSET -7.352252 -19.832748 14.164206
										CHANNELS 3 Xrotation Yrotation Zrotation
										JOINT R_Eye
										{
											OFFSET 0.000875 -0.001068 0.015991
											CHANNELS 3 Xrotation Yrotation Zrotation
											End Site
											{
												OFFSET 0.001505 -0.001846 0.027962
											}
										}
										JOINT R_Eyelid_Top
										{
											OFFSET 0.001021 -0.002625 0.032516
											CHANNELS 3 Xrotation Yrotation Zrotation
											End Site
											{
												OFFSET 0.013214 0.005753 0.024078
											}
										}
										JOINT R_Eyelid_Bottom
										{
											OFFSET 0.001170 -0.002762 0.035366
											CHANNELS 3 Xrotation Yrotation Zrotation
											End Site
											{
												OFFSET 0.010029 0.008636 -0.024746
											}
										}
									}
								}
								JOINT Neck_Fat
								{
									OFFSET 0.000044 -9.595100 -17.491512
									CHANNELS 3 Xrotation Yrotation Zrotation
									End Site
									{
										OFFSET -0.000036 15.369423 -0.000007
									}
								}
							}
						}
						JOINT L_Clavicle
						{
							OFFSET 4.567107 -11.666092 -3.750029
							CHANNELS 3 Xrotation Yrotation Zrotation
							JOINT L_UpperArm
							{
								OFFSET 20.725666 -0.000053 -0.000032
								CHANNELS 3 Xrotation Yrotation Zrotation
								JOINT L_Forearm
								{
									OFFSET 5.265112 -0.585754 -20.155697
									CHANNELS 3 Xrotation Yrotation Zrotation
									JOINT L_Hand
									{
										OFFSET 2.653017 -10.877708 -16.383667
										CHANNELS 3 Xrotation Yrotation Zrotation
										JOINT L_Finger0
										{
											OFFSET -4.206146 -4.328911 -5.034346
											CHANNELS 3 Xrotation Yrotation Zrotation
											JOINT L_Finger01
											{
												OFFSET 0.084272 -1.788536 -4.181065
												CHANNELS 3 Xrotation Yrotation Zrotation
												End Site
												{
													OFFSET 3.261885 3.094673 -0.685818
												}
											}
										}
										JOINT L_Finger1
										{
											OFFSET -1.039112 -6.775742 -3.499998
											CHANNELS 3 Xrotation Yrotation Zrotation
											JOINT L_Finger11
											{
												OFFSET 1.320335 -3.040672 -6.425793
												CHANNELS 3 Xrotation Yrotation Zrotation
												End Site
												{
													OFFSET -1.244579 6.832077 -2.013330
												}
											}
										}
										JOINT L_Finger2
										{
											OFFSET 2.531296 -5.656487 -3.286415
											CHANNELS 3 Xrotation Yrotation Zrotation
											JOINT L_Finger21
											{
												OFFSET 1.991665 -2.402016 -5.957748
												CHANNELS 3 Xrotation Yrotation Zrotation
												End Site
												{
													OFFSET -2.793068 5.800873 -1.944178
												}
											}
										}
										JOINT L_Finger3
										{
											OFFSET 5.474075 -3.302338 -2.655975
											CHANNELS 3 Xrotation Yrotation Zrotation
											JOINT L_Finger31
											{
												OFFSET 2.026943 -1.267532 -5.961166
												CHANNELS 3 Xrotation Yrotation Zrotation
												End Site
												{
													OFFSET -4.375172 4.343658 -1.800320
												}
											}
										}
										JOINT L_Finger4
										{
											OFFSET 4.825745 1.085899 -2.321970
											CHANNELS 3 Xrotation Yrotation Zrotation
											JOINT L_Finger41
											{
												OFFSET 3.358261 -1.829651 -3.744434
												CHANNELS 3 Xrotation Yrotation Zrotation
												End Site
												{
													OFFSET -3.843296 2.955200 -2.267633
												}
											}
										}
									}
								}
							}
						}
						JOINT R_Clavicle
						{
							OFFSET -4.567111 -11.666092 -3.750036
							CHANNELS 3 Xrotation Yrotation Zrotation
							JOINT R_UpperArm
							{
								OFFSET -20.725670 -0.000031 0.000038
								CHANNELS 3 Xrotation Yrotation Zrotation
								JOINT R_Forearm
								{
									OFFSET -5.265285 -0.585762 -20.155655
									CHANNELS 3 Xrotation Yrotation Zrotation
									JOINT R_Hand
									{
										OFFSET -2.653147 -10.877739 -16.383663
										CHANNELS 3 Xrotation Yrotation Zrotation
										JOINT R_Finger0
										{
											OFFSET 4.206116 -4.328888 -5.034388
											CHANNELS 3 Xrotation Yrotation Zrotation
											JOINT R_Finger01
											{
												OFFSET -0.084324 -1.788544 -4.181051
												CHANNELS 3 Xrotation Yrotation Zrotation
												End Site
												{
													OFFSET -3.261890 3.094666 -0.685791
												}
											}
										}
										JOINT R_Finger1
										{
											OFFSET 1.039101 -6.775711 -3.499994
											CHANNELS 3 Xrotation Yrotation Zrotation
											JOINT R_Finger11
											{
												OFFSET -1.320374 -3.040672 -6.425779
												CHANNELS 3 Xrotation Yrotation Zrotation
												End Site
												{
													OFFSET 1.244556 6.832077 -2.013342
												}
											}
										}
										JOINT R_Finger2
										{
											OFFSET -2.531307 -5.656464 -3.286409
											CHANNELS 3 Xrotation Yrotation Zrotation
											JOINT R_Finger21
											{
												OFFSET -1.991707 -2.402016 -5.957708
												CHANNELS 3 Xrotation Yrotation Zrotation
												End Site
												{
													OFFSET 2.793037 5.800858 -1.944197
												}
											}
										}
										JOINT R_Finger3
										{
											OFFSET -5.474091 -3.302330 -2.655947
											CHANNELS 3 Xrotation Yrotation Zrotation
											JOINT R_Finger31
											{
												OFFSET -2.026993 -1.267532 -5.961157
												CHANNELS 3 Xrotation Yrotation Zrotation
												End Site
												{
													OFFSET 4.375156 4.343674 -1.800358
												}
											}
										}
										JOINT R_Finger4
										{
											OFFSET -4.825756 1.085922 -2.321926
											CHANNELS 3 Xrotation Yrotation Zrotation
											JOINT R_Finger41
											{
												OFFSET -3.358307 -1.829651 -3.744390
												CHANNELS 3 Xrotation Yrotation Zrotation
												End Site
												{
													OFFSET 3.843273 2.955208 -2.267666
												}
											}
										}
									}
								}
							}
						}
					}
				}
			}
		}
		JOINT Tail01
		{
			OFFSET -0.000010 10.922326 -0.017508
			CHANNELS 3 Xrotation Yrotation Zrotation
			JOINT Tail02
			{
				OFFSET -0.000022 21.986111 0.000013
				CHANNELS 3 Xrotation Yrotation Zrotation
				JOINT Tail03
				{
					OFFSET -0.000022 21.986118 0.000002
					CHANNELS 3 Xrotation Yrotation Zrotation
					JOINT Tail04
					{
						OFFSET -0.000022 21.986122 0.000004
						CHANNELS 3 Xrotation Yrotation Zrotation
						JOINT Tail05
						{
							OFFSET -0.000022 21.986099 0.000010
							CHANNELS 3 Xrotation Yrotation Zrotation
							JOINT Tail06
							{
								OFFSET -0.000022 21.986099 0.000006
								CHANNELS 3 Xrotation Yrotation Zrotation
								JOINT Tail07
								{
									OFFSET -0.000022 21.986099 0.000000
									CHANNELS 3 Xrotation Yrotation Zrotation
									JOINT Tail08
									{
										OFFSET -0.000022 21.984848 0.000050
										CHANNELS 3 Xrotation Yrotation Zrotation
										JOINT Tail09
										{
											OFFSET -0.000025 21.926025 -1.606211
											CHANNELS 3 Xrotation Yrotation Zrotation
											JOINT Tail10
											{
												OFFSET -0.000027 21.750092 -3.203882
												CHANNELS 3 Xrotation Yrotation Zrotation
												End Site
												{
													OFFSET -0.000036 4.767395 21.461668
												}
											}
										}
									}
								}
							}
						}
					}
				}
			}
		}
		JOINT L_Thigh
		{
			OFFSET 24.788780 0.000021 -0.000034
			CHANNELS 3 Xrotation Yrotation Zrotation
			JOINT L_Calf
			{
				OFFSET 4.720837 4.161326 -21.049969
				CHANNELS 3 Xrotation Yrotation Zrotation
				JOINT L_Foot
				{
					OFFSET 2.154160 21.114433 -11.949743
					CHANNELS 3 Xrotation Yrotation Zrotation
					JOINT L_Toe0
					{
						OFFSET 4.557564 9.251841 -8.735286
						CHANNELS 3 Xrotation Yrotation Zrotation
						End Site
						{
							OFFSET 4.555542 -12.646044 1.018752
						}
					}
					JOINT L_Toe1
					{
						OFFSET 2.346291 5.845602 -11.687160
						CHANNELS 3 Xrotation Yrotation Zrotation
						End Site
						{
							OFFSET 5.347954 -12.298279 1.365644
						}
					}
					JOINT L_Toe2
					{
						OFFSET -0.356020 3.902458 -12.541145
						CHANNELS 3 Xrotation Yrotation Zrotation
						End Site
						{
							OFFSET 3.916235 -12.806129 1.542549
						}
					}
					JOINT L_Toe3
					{
						OFFSET -4.603447 3.183935 -12.435249
						CHANNELS 3 Xrotation Yrotation Zrotation
						End Site
						{
							OFFSET 3.810858 -12.587427 2.957583
						}
					}
					JOINT L_Toe4
					{
						OFFSET -7.144358 6.231495 -10.072764
						CHANNELS 3 Xrotation Yrotation Zrotation
						End Site
						{
							OFFSET 3.810858 -12.587425 2.957585
						}
					}
				}
			}
		}
		JOINT R_Thigh
		{
			OFFSET -24.788780 -0.000024 0.000034
			CHANNELS 3 Xrotation Yrotation Zrotation
			JOINT R_Calf
			{
				OFFSET -4.720922 4.161324 -21.049952
				CHANNELS 3 Xrotation Yrotation Zrotation
				JOINT R_Foot
				{
					OFFSET -2.154238 21.114414 -11.949730
					CHANNELS 3 Xrotation Yrotation Zrotation
					JOINT R_Toe0
					{
						OFFSET -4.557598 9.251823 -8.735270
						CHANNELS 3 Xrotation Yrotation Zrotation
						End Site
						{
							OFFSET -4.555508 -12.646051 1.018756
						}
					}
					JOINT R_Toe1
					{
						OFFSET -2.346325 5.845589 -11.687157
						CHANNELS 3 Xrotation Yrotation Zrotation
						End Site
						{
							OFFSET -5.347919 -12.298286 1.365654
						}
					}
					JOINT R_Toe2
					{
						OFFSET 0.355980 3.902462 -12.541145
						CHANNELS 3 Xrotation Yrotation Zrotation
						End Site
						{
							OFFSET -3.916199 -12.806131 1.542559
						}
					}
					JOINT R_Toe3
					{
						OFFSET 4.603411 3.183941 -12.435266
						CHANNELS 3 Xrotation Yrotation Zrotation
						End Site
						{
							OFFSET -3.810825 -12.587429 2.957591
						}
					}
					JOINT R_Toe4
					{
						OFFSET 7.144323 6.231503 -10.072779
						CHANNELS 3 Xrotation Yrotation Zrotation
						End Site
						{
							OFFSET -3.810825 -12.587433 2.957584
						}
					}
				}
			}
		}
	}
}
MOTION
Frames: 4
Frame Time: 0.033333
0.000000 0.000000 52.000000 0.000000 -0.000000 0.000044 -8.842944 -0.000088 0.000007 10.961114 0.000007 0.000018 2.118162 -0.000001 0.000003 4.876472 -0.000002 0.000004 -2.163954 0.000002 -0.000003 -6.986525 0.000003 -0.000007 -13.013541 0.000008 -0.000015 14.417312 -0.000016 -0.000007 -11.537028 -0.000053 0.000048 0.000008 0.000000 -0.000000 0.000021 -0.000000 -0.000000 -0.000005 0.000007 -0.000020 0.000123 -0.000077 0.000017 0.000000 -0.000001 -0.000001 -0.000000 -0.000003 0.000005 0.000001 0.000000 -0.000009 0.000121 0.000076 -0.000015 0.000001 -0.000004 0.000000 -0.000003 0.000003 -0.000003 -0.000001 -0.000000 -0.000000 -0.000879 4.114583 11.904650 26.136861 -13.608003 -29.332364 -23.413402 4.857666 -5.359956 -64.573278 -13.413031 -14.628590 4.814246 45.237876 32.496814 0.108387 -0.103826 0.046718 31.239882 13.715133 -10.715217 -21.103485 -3.971329 -2.962971 30.256529 6.344420 -6.448668 -32.343282 -14.390355 -8.157531 20.872332 -11.244811 -8.185808 -18.722426 -18.085392 -5.094121 18.635512 -29.682653 -0.393830 0.555235 0.804616 0.101803 -0.000907 -4.114892 -11.904634 1.175072 14.107608 33.206122 -12.983624 -2.414667 3.207905 -53.408521 5.511602 0.401955 4.813896 -45.237825 -32.497111 0.108386 0.103824 -0.046715 31.239926 -13.715162 10.714983 -21.103485 3.971280 2.963141 30.256577 -6.344447 6.448432 -32.343306 14.390252 8.157745 20.872411 11.244834 8.185623 -18.722462 18.085333 5.094263 18.635553 29.682660 0.393677 0.555238 -0.804613 -0.101803 -12.821442 -0.000004 0.000031 -8.690508 -1.231629 3.950030 3.553604 -0.181040 4.130726 10.254868 -0.516810 -5.348515 8.081712 -0.227258 -5.341334 3.149385 -0.198539 -9.484002 2.260962 -0.385533 -9.446044 3.251357 -0.480232 7.201988 2.529276 0.390781 7.076520 2.504828 0.702949 7.052490 -27.408803 -10.892089 11.838824 -10.432412 -0.073225 -2.410104 -27.253788 -19.732213 -8.454212 -2.318588 -4.298935 -0.446775 8.087302 0.872392 0.413567 17.133840 6.636283 3.687456 20.253534 6.370518 -9.434384 -1.696115 7.323595 -8.103867 -11.861655 6.993958 -18.227396 -11.337984 0.058830 2.619239 -43.150581 17.417199 11.350142 -2.318604 4.298943 0.446766 8.087305 -0.872364 -0.413606 17.133827 -6.636221 -3.687518 20.253574 -6.370339 9.434253 -1.696082 -7.323594 8.103854 
-0.000000 -0.156006 51.809807 0.000000 -0.000000 0.000044 -8.904702 -0.000093 0.000014 10.945898 0.000007 0.000018 2.175897 -0.000001 0.000003 4.529680 -0.000002 0.000005 -2.163954 0.000002 -0.000003 -7.254695 0.000003 -0.000006 -13.013541 0.000008 -0.000015 14.035210 -0.079472 -0.310736 -10.247658 -0.000055 0.000046 0.000007 -0.000000 0.000000 0.000021 0.000000 -0.000000 -0.000005 0.000007 -0.000017 0.000124 -0.000076 0.000005 0.000001 -0.000003 -0.000003 0.000001 -0.000003 -0.000000 0.000001 0.000000 -0.000000 0.000122 0.000077 -0.000015 0.000001 -0.000003 0.000004 0.000000 -0.000004 0.000002 -0.000000 0.000000 -0.000000 -0.000861 4.028600 11.904927 26.688027 -13.480140 -29.342739 -22.961207 4.743588 -5.275749 -65.152061 -13.341031 -14.802651 4.814245 45.237873 32.496817 0.108383 -0.103830 0.046721 31.239878 13.715131 -10.715215 -21.103486 -3.971324 -2.962974 30.256529 6.344419 -6.448662 -32.343285 -14.390351 -8.157530 20.872334 -11.244811 -8.185800 -18.722430 -18.085395 -5.094121 18.635510 -29.682653 -0.393824 0.555237 0.804618 0.101801 -0.000925 -4.028907 -11.904918 1.903700 14.130518 33.099957 -12.959070 -2.409413 3.202352 -53.737538 5.573311 0.569571 4.813895 -45.237818 -32.497104 0.108389 0.103824 -0.046712 31.239929 -13.715164 10.714985 -21.103485 3.971278 2.963139 30.256577 -6.344448 6.448429 -32.343302 14.390252 8.157746 20.872411 11.244832 8.185629 -18.722462 18.085339 5.094257 18.635550 29.682660 0.393677 0.555241 -0.804617 -0.101805 -12.711458 -0.000003 0.000031 -8.662139 -1.231629 3.950030 3.572050 -0.182370 4.130726 10.273175 -0.519451 -5.348521 8.058687 -0.226106 -5.341334 3.134943 -0.199142 -9.484002 2.246818 -0.388493 -9.446051 3.237895 -0.485505 7.202115 2.515263 0.387224 7.076725 2.504831 0.702949 7.052489 -27.882407 -11.131262 11.533732 -9.052399 -0.088753 -2.091108 -28.087251 -19.619317 -8.507586 -2.318588 -4.298928 -0.446777 8.087301 0.872402 0.413562 17.133845 6.636284 3.687455 20.253543 6.370519 -9.434384 -1.696110 7.323599 -8.103865 -12.113350 7.228790 -18.030263 -10.210380 0.076210 2.358833 -43.915227 17.303055 11.352924 -2.318604 4.298946 0.446768 8.087302 -0.872363 -0.413609 17.133825 -6.636219 -3.687521 20.253574 -6.370336 9.434250 -1.696082 -7.323593 8.103850 
-0.000000 -0.316971 51.611698 0.000000 -0.000000 0.000044 -8.968312 -0.000091 0.000007 10.931409 0.000007 0.000018 2.234354 -0.000001 0.000003 4.163970 -0.000002 0.000006 -2.163954 0.000002 -0.000003 -7.522600 0.000003 -0.000006 -13.013541 0.000008 -0.000015 13.755023 -0.158382 -0.623880 -8.905022 -0.000058 0.000043 0.000009 -0.000000 0.000000 0.000021 0.000000 0.000000 -0.000005 0.000007 -0.000017 0.000123 -0.000076 -0.000002 0.000001 -0.000003 -0.000003 0.000001 0.000001 -0.000000 0.000001 0.000000 -0.000007 0.000123 0.000077 -0.000012 0.000006 -0.000009 -0.000002 -0.000003 0.000001 -0.000003 -0.000000 -0.000000 -0.000000 -0.000852 3.940625 11.905104 27.247805 -13.344801 -29.357085 -22.471932 4.620936 -5.183658 -65.749341 -13.263976 -14.978733 4.814241 45.237876 32.496817 0.108383 -0.103828 0.046718 31.239885 13.715133 -10.715216 -21.103481 -3.971329 -2.962969 30.256529 6.344419 -6.448663 -32.343278 -14.390351 -8.157531 20.872334 -11.244811 -8.185803 -18.722430 -18.085388 -5.094124 18.635512 -29.682650 -0.393832 0.555231 0.804620 0.101797 -0.000916 -3.940943 -11.905125 2.655681 14.148298 32.994656 -12.911372 -2.399204 3.191563 -54.090379 5.631515 0.742713 4.813897 -45.237815 -32.497104 0.108386 0.103822 -0.046712 31.239929 -13.715164 10.714984 -21.103481 3.971278 2.963140 30.256580 -6.344449 6.448434 -32.343306 14.390254 8.157742 20.872416 11.244832 8.185627 -18.722462 18.085335 5.094259 18.635558 29.682657 0.393675 0.555237 -0.804615 -0.101805 -12.598684 -0.000003 0.000031 -8.633382 -1.231629 3.950023 3.590751 -0.183693 4.130723 10.291728 -0.522090 -5.348523 8.035350 -0.224958 -5.341332 3.120307 -0.199740 -9.484004 2.232490 -0.391452 -9.446054 3.224250 -0.490847 7.202240 2.501057 0.383630 7.076930 2.504827 0.702949 7.052490 -28.349262 -11.370315 11.224073 -7.669694 -0.096596 -1.771214 -28.932678 -19.501937 -8.558502 -2.318586 -4.298935 -0.446774 8.087304 0.872393 0.413570 17.133845 6.636282 3.687459 20.253545 6.370518 -9.434379 -1.696110 7.323595 -8.103862 -12.359408 7.464039 -17.829719 -9.077687 0.088512 2.096982 -44.680639 17.187054 11.348913 -2.318604 4.298941 0.446770 8.087305 -0.872364 -0.413609 17.133828 -6.636223 -3.687519 20.253575 -6.370338 9.434250 -1.696083 -7.323597 8.103854 
-0.000000 -0.481970 51.406830 0.000000 -0.000000 0.000044 -9.033616 -0.000094 0.000020 10.917797 0.000006 0.000018 2.293397 -0.000001 0.000002 3.782118 -0.000001 0.000006 -2.163952 0.000002 -0.000003 -7.790273 0.000003 -0.000005 -13.013541 0.000008 -0.000015 13.521013 -0.232947 -0.937707 -7.520246 -0.000060 0.000041 0.000007 0.000000 -0.000000 0.000021 -0.000000 0.000000 -0.000005 0.000007 -0.000017 0.000124 -0.000075 -0.000004 -0.000001 -0.000003 -0.000001 0.000000 -0.000003 0.000008 0.000000 0.000000 -0.000005 0.000124 0.000077 -0.000007 0.000006 -0.000010 0.000004 0.000000 0.000004 0.000004 -0.000000 -0.000000 -0.000000 -0.000848 3.850630 11.905226 27.816558 -13.200358 -29.375957 -21.947030 4.490256 -5.083737 -66.366660 -13.181032 -15.155590 4.814244 45.237873 32.496814 0.108386 -0.103824 0.046719 31.239878 13.715132 -10.715221 -21.103481 -3.971325 -2.962970 30.256532 6.344418 -6.448658 -32.343282 -14.390351 -8.157531 20.872336 -11.244809 -8.185804 -18.722431 -18.085393 -5.094118 18.635512 -29.682653 -0.393835 0.555238 0.804616 0.101803 -0.000893 -3.850937 -11.905208 3.425470 14.159256 32.891104 -12.839594 -2.383866 3.175296 -54.465530 5.685129 0.920476 4.813898 -45.237822 -32.497108 0.108390 0.103819 -0.046715 31.239929 -13.715162 10.714982 -21.103481 3.971279 2.963141 30.256573 -6.344447 6.448432 -32.343306 14.390254 8.157747 20.872414 11.244832 8.185625 -18.722465 18.085335 5.094263 18.635560 29.682660 0.393676 0.555240 -0.804613 -0.101806 -12.483608 -0.000003 0.000031 -8.604317 -1.231629 3.950023 3.609651 -0.185013 4.130724 10.310487 -0.524726 -5.348527 8.011750 -0.223814 -5.341331 3.105512 -0.200332 -9.483997 2.218014 -0.394409 -9.446060 3.210457 -0.496247 7.202365 2.486699 0.380003 7.077130 2.504829 0.702949 7.052489 -28.806015 -11.607866 10.911615 -6.291894 -0.096735 -1.452367 -29.807929 -19.378114 -8.608701 -2.318588 -4.298932 -0.446777 8.087304 0.872394 0.413563 17.133847 6.636280 3.687458 20.253543 6.370520 -9.434380 -1.696114 7.323600 -8.103868 -12.595879 7.698187 -17.627036 -7.946497 0.095619 1.835283 -45.430966 17.071745 11.336016 -2.318602 4.298943 0.446764 8.087309 -0.872365 -0.413611 17.133833 -6.636221 -3.687521 20.253575 -6.370341 9.434252 -1.696081 -7.323593 8.103849 
